<?xml version="1.0" standalone="no"?>
<!DOCTYPE svg PUBLIC "-//W3C//DTD SVG 20010904//EN"
 "http://www.w3.org/TR/2001/REC-SVG-20010904/DTD/svg10.dtd">
<svg version="1.0" xmlns="http://www.w3.org/2000/svg"
 width="700.000000pt" height="700.000000pt" viewBox="0 0 700.000000 700.000000"
 preserveAspectRatio="xMidYMid meet">
<metadata>
Created by potrace 1.11, written by Peter Selinger 2001-2013
</metadata>
<g transform="translate(0.000000,700.000000) scale(0.100000,-0.100000)"
fill="#000000" stroke="none">
<path d="M2950 5310 c0 -289 -3 -390 -12 -390 -6 0 -174 85 -372 189 -199 104
-380 198 -403 210 l-43 21 0 -1497 0 -1498 1000 -523 c549 -287 1002 -522
1005 -522 2 0 6 177 7 394 l3 395 220 -115 c121 -63 307 -160 413 -215 l192
-101 0 1499 0 1498 -1000 523 c-550 287 -1002 522 -1005 522 -3 0 -5 -175 -5
-390z"/>
</g>
</svg>
