<svg width="128" height="17" viewBox="0 0 128 17" fill="none" xmlns="http://www.w3.org/2000/svg">
<path d="M4 16.408C3.2 16.408 2.52267 16.2533 1.968 15.944C1.56267 15.7093 1.25867 15.4053 1.056 15.032C0.853333 14.68 0.746667 14.264 0.736 13.784C0.746667 13.3467 0.837333 12.9733 1.008 12.664C1.18933 12.344 1.45067 12.0827 1.792 11.88C1.65333 11.7627 1.536 11.624 1.44 11.464C1.30133 11.24 1.23733 10.9947 1.248 10.728C1.23733 10.4613 1.30667 10.2053 1.456 9.96C1.584 9.736 1.76533 9.544 2 9.384C1.68 9.17067 1.42933 8.904 1.248 8.584C1.01333 8.17867 0.896 7.69867 0.896 7.144C0.896 6.57867 1.01333 6.09867 1.248 5.704C1.46133 5.32 1.76533 5.016 2.16 4.792C2.61867 4.52533 3.17867 4.392 3.84 4.392C4.192 4.392 4.512 4.42933 4.8 4.504L4.88 4.52H7.36V5.416L6.224 5.368C6.30933 5.47467 6.384 5.58667 6.448 5.704C6.68267 6.09867 6.8 6.57867 6.8 7.144C6.8 7.69867 6.68267 8.17867 6.448 8.584C6.224 8.95733 5.92 9.256 5.536 9.48C5.07733 9.74667 4.512 9.88 3.84 9.88C3.456 9.88 3.104 9.83733 2.784 9.752C2.624 9.80533 2.48533 9.89067 2.368 10.008C2.208 10.168 2.128 10.3547 2.128 10.568C2.128 10.7707 2.20267 10.952 2.352 11.112C2.56533 11.3253 2.95467 11.4373 3.52 11.448C3.552 11.448 3.584 11.448 3.616 11.448H4.384C5.10933 11.448 5.712 11.592 6.192 11.88C6.544 12.072 6.81067 12.3333 6.992 12.664C7.184 12.984 7.28 13.368 7.28 13.816C7.28 14.264 7.17333 14.6693 6.96 15.032C6.75733 15.4053 6.45333 15.704 6.048 15.928C5.504 16.248 4.82133 16.408 4 16.408ZM4 15.512C4.59733 15.512 5.088 15.4 5.472 15.176C5.73867 15.016 5.94667 14.8187 6.096 14.584C6.224 14.3493 6.288 14.0933 6.288 13.816C6.288 13.5387 6.22933 13.304 6.112 13.112C6.00533 12.92 5.84 12.76 5.616 12.632C5.28533 12.44 4.87467 12.344 4.384 12.344H3.52C3.09333 12.344 2.72533 12.4347 2.416 12.616C2.192 12.744 2.02133 12.904 1.904 13.096C1.78667 13.2987 1.73333 13.528 1.744 13.784C1.73333 14.0827 1.79733 14.3493 1.936 14.584C2.07467 14.8293 2.28267 15.0267 2.56 15.176C2.93333 15.4 3.41333 15.512 4 15.512ZM3.84 8.984C4.27733 8.984 4.65067 8.89867 4.96 8.728C5.216 8.57867 5.41867 8.376 5.568 8.12C5.71733 7.85333 5.79733 7.528 5.808 7.144C5.79733 6.76 5.71733 6.42933 5.568 6.152C5.41867 5.90667 5.216 5.70933 4.96 5.56C4.704 5.41067 4.40533 5.32533 4.064 5.304L3.84 5.288C3.41333 5.288 3.04533 5.37333 2.736 5.544C2.48 5.704 2.27733 5.90667 2.128 6.152C1.968 6.42933 1.888 6.76 1.888 7.144C1.888 7.528 1.968 7.85333 2.128 8.12C2.27733 8.376 2.48 8.57867 2.736 8.728C3.04533 8.89867 3.41333 8.984 3.84 8.984ZM12.112 13.128C11.4827 13.128 10.9387 12.9947 10.48 12.728C10.032 12.472 9.67467 12.1093 9.408 11.64C9.06667 11.0533 8.896 10.3333 8.896 9.48V8.04C8.896 7.16533 9.06667 6.42933 9.408 5.832C9.67467 5.37333 10.0267 5.02133 10.464 4.776C10.9013 4.52 11.4133 4.392 12 4.392C12.5867 4.392 13.0987 4.52 13.536 4.776C13.9733 5.02133 14.3253 5.37333 14.592 5.832C14.9333 6.42933 15.104 7.16533 15.104 8.04V9.208H9.888V9.48C9.888 10.1627 10.0213 10.7333 10.288 11.192C10.48 11.5333 10.7307 11.7947 11.04 11.976C11.3493 12.1467 11.7067 12.232 12.112 12.232C12.5173 12.232 12.8747 12.1413 13.184 11.96C13.4933 11.7787 13.7493 11.5173 13.952 11.176C14.0693 10.9733 14.1547 10.7653 14.208 10.552L15.12 10.92C15.0347 11.1867 14.928 11.4267 14.8 11.64C14.5333 12.1093 14.1707 12.4773 13.712 12.744C13.264 13 12.7307 13.128 12.112 13.128ZM9.888 8.312H14.112V8.04C14.112 7.336 13.9787 6.74933 13.712 6.28C13.5093 5.94933 13.264 5.69867 12.976 5.528C12.6987 5.368 12.3733 5.288 12 5.288C11.6267 5.288 11.3013 5.368 11.024 5.528C10.736 5.69867 10.4907 5.94933 10.288 6.28C10.0213 6.74933 9.888 7.336 9.888 8.04V8.312ZM20 13.128C19.4133 13.128 18.9013 13.0053 18.464 12.76C18.0267 12.504 17.6747 12.1467 17.408 11.688C17.0667 11.0907 16.896 10.3547 16.896 9.48V8.04C16.896 7.16533 17.0667 6.42933 17.408 5.832C17.6747 5.37333 18.0267 5.02133 18.464 4.776C18.9013 4.52 19.4133 4.392 20 4.392C20.5867 4.392 21.0987 4.52 21.536 4.776C21.9733 5.02133 22.3253 5.37333 22.592 5.832C22.9333 6.42933 23.104 7.16533 23.104 8.04V9.48C23.104 10.3547 22.9333 11.0907 22.592 11.688C22.3253 12.1467 21.9733 12.504 21.536 12.76C21.0987 13.0053 20.5867 13.128 20 13.128ZM20 12.232C20.3733 12.232 20.6987 12.152 20.976 11.992C21.264 11.8213 21.5093 11.5707 21.712 11.24C21.9787 10.7707 22.112 10.184 22.112 9.48V8.04C22.112 7.336 21.9787 6.74933 21.712 6.28C21.5093 5.94933 21.264 5.69867 20.976 5.528C20.6987 5.368 20.3733 5.288 20 5.288C19.6267 5.288 19.3013 5.368 19.024 5.528C18.736 5.69867 18.4907 5.94933 18.288 6.28C18.0213 6.74933 17.888 7.336 17.888 8.04V9.48C17.888 10.184 18.0213 10.7707 18.288 11.24C18.4907 11.5707 18.736 11.8213 19.024 11.992C19.3013 12.152 19.6267 12.232 20 12.232ZM27.728 13.128C27.2693 13.128 26.864 13.0267 26.512 12.824C26.128 12.6 25.8133 12.2747 25.568 11.848C25.2053 11.2293 25.024 10.44 25.024 9.48V4.52H26.016V9.48C26.016 10.216 26.1547 10.8187 26.432 11.288C26.6133 11.608 26.8427 11.848 27.12 12.008C27.376 12.1573 27.6693 12.232 28 12.232C28.3307 12.232 28.624 12.1573 28.88 12.008C29.1573 11.848 29.3867 11.608 29.568 11.288C29.8453 10.8187 29.984 10.216 29.984 9.48V4.52H30.976V13H29.984V11.704C29.9627 11.7467 29.936 11.7947 29.904 11.848C29.648 12.2747 29.3333 12.6 28.96 12.824C28.608 13.0267 28.1973 13.128 27.728 13.128ZM33.2 13V12.104H35.616V2.136H33.424V1.24H36.608V12.104H38.8V13H33.2ZM45.312 14.616C45.0987 14.616 44.9173 14.5733 44.768 14.488C44.5973 14.392 44.4427 14.232 44.304 14.008C44.1653 13.752 44.0693 13.4427 44.016 13.08C43.9627 13.2187 43.904 13.3467 43.84 13.464C43.712 13.688 43.552 13.8587 43.36 13.976C43.1893 14.0613 42.992 14.104 42.768 14.104C42.4587 14.104 42.1813 14.0347 41.936 13.896C41.6907 13.7573 41.488 13.5493 41.328 13.272C41.1253 12.9093 41.024 12.4667 41.024 11.944V6.824C41.024 6.29067 41.1253 5.84267 41.328 5.48C41.488 5.20267 41.6907 4.99467 41.936 4.856C42.1813 4.71733 42.4587 4.648 42.768 4.648C42.992 4.648 43.1893 4.69067 43.36 4.776C43.552 4.89333 43.712 5.064 43.84 5.288C43.8507 5.30933 43.856 5.32533 43.856 5.336L43.968 4.776H44.576V12.44C44.576 12.9627 44.6827 13.336 44.896 13.56C45.0133 13.6667 45.1467 13.72 45.296 13.72C45.4347 13.72 45.552 13.672 45.648 13.576C45.872 13.3627 45.984 12.984 45.984 12.44V3.464C45.984 2.89867 45.872 2.42933 45.648 2.056C45.4773 1.75733 45.248 1.528 44.96 1.368C44.672 1.19733 44.3307 1.112 43.936 1.112C43.5413 1.112 43.2 1.19733 42.912 1.368C42.624 1.528 42.3947 1.75733 42.224 2.056C42.064 2.344 41.9627 2.65867 41.92 3L40.944 2.824C40.9973 2.376 41.1307 1.96533 41.344 1.592C41.5893 1.16533 41.92 0.834666 42.336 0.599999C42.7947 0.344 43.328 0.216 43.936 0.216C44.5547 0.216 45.088 0.344 45.536 0.599999C45.952 0.834666 46.2827 1.16533 46.528 1.592C46.8267 2.104 46.976 2.728 46.976 3.464V12.44C46.976 12.9947 46.8693 13.4533 46.656 13.816C46.5067 14.0827 46.3147 14.28 46.08 14.408C45.8453 14.5467 45.5893 14.616 45.312 14.616ZM42.8 13.208C42.9707 13.208 43.12 13.1493 43.248 13.032C43.4613 12.808 43.5733 12.4453 43.584 11.944V6.824C43.5733 6.312 43.4613 5.944 43.248 5.72C43.12 5.60267 42.9707 5.544 42.8 5.544C42.6293 5.544 42.48 5.60267 42.352 5.72C42.128 5.944 42.016 6.312 42.016 6.824V11.944C42.016 12.4453 42.128 12.808 42.352 13.032C42.48 13.1493 42.6293 13.208 42.8 13.208ZM51.968 13.128C51.7227 13.128 51.4933 13.112 51.28 13.08C50.8427 13.016 50.464 12.8933 50.144 12.712C49.7493 12.488 49.4347 12.1733 49.2 11.768C49.104 11.5973 49.0293 11.4213 48.976 11.24L49.92 10.952C49.9627 11.08 50.016 11.1973 50.08 11.304C50.2293 11.5707 50.4373 11.784 50.704 11.944C51.0453 12.136 51.4667 12.232 51.968 12.232C52.5227 12.232 52.976 12.1307 53.328 11.928C53.552 11.7893 53.7227 11.624 53.84 11.432C53.9467 11.2507 54 11.0427 54 10.808C54 10.5733 53.9413 10.3547 53.824 10.152C53.696 9.928 53.5093 9.74667 53.264 9.608C52.9973 9.448 52.5493 9.33067 51.92 9.256C51.152 9.14933 50.5813 8.98933 50.208 8.776C49.824 8.552 49.5253 8.264 49.312 7.912C49.1093 7.54933 49.008 7.14933 49.008 6.712C49.008 6.296 49.0987 5.93867 49.28 5.64C49.4613 5.32 49.7333 5.05333 50.096 4.84C50.608 4.54133 51.2533 4.392 52.032 4.392C52.768 4.392 53.376 4.53067 53.856 4.808C54.2507 5.032 54.5653 5.34667 54.8 5.752C54.896 5.92267 54.9707 6.09867 55.024 6.28L54.08 6.568C54.0053 6.30133 53.8613 6.06133 53.648 5.848C53.5413 5.74133 53.424 5.65067 53.296 5.576C52.9547 5.384 52.5333 5.288 52.032 5.288C51.4773 5.288 51.024 5.38933 50.672 5.592C50.448 5.73067 50.2773 5.896 50.16 6.088C50.0533 6.26933 50 6.47733 50 6.712C50 6.94667 50.0587 7.16533 50.176 7.368C50.304 7.592 50.4907 7.77333 50.736 7.912C51.0027 8.072 51.4507 8.18933 52.08 8.264C52.848 8.37067 53.4187 8.53067 53.792 8.744C54.176 8.968 54.4693 9.26133 54.672 9.624C54.8853 9.976 54.992 10.3707 54.992 10.808C54.992 11.224 54.9013 11.5813 54.72 11.88C54.5387 12.2 54.2667 12.4667 53.904 12.68C53.392 12.9787 52.7467 13.128 51.968 13.128ZM57.024 16.28V4.52H58.016V5.816C58.0373 5.77333 58.064 5.72533 58.096 5.672C58.352 5.24533 58.6667 4.92 59.04 4.696C59.392 4.49333 59.8027 4.392 60.272 4.392C60.7733 4.392 61.2107 4.49867 61.584 4.712C61.9893 4.94667 62.32 5.28267 62.576 5.72C62.928 6.33867 63.104 7.112 63.104 8.04V9.48C63.104 10.408 62.928 11.1813 62.576 11.8C62.32 12.2373 61.9893 12.5733 61.584 12.808C61.2107 13.0213 60.7733 13.128 60.272 13.128C59.8027 13.128 59.392 13.0267 59.04 12.824C58.6667 12.6 58.352 12.2747 58.096 11.848C58.064 11.7947 58.0373 11.7467 58.016 11.704V16.28H57.024ZM60.016 12.232C60.3787 12.232 60.6987 12.152 60.976 11.992C61.264 11.8213 61.5093 11.5707 61.712 11.24C61.9787 10.7707 62.112 10.184 62.112 9.48V8.04C62.112 7.336 61.9787 6.74933 61.712 6.28C61.5093 5.94933 61.264 5.69867 60.976 5.528C60.6987 5.368 60.3787 5.288 60.016 5.288C59.6747 5.288 59.376 5.36267 59.12 5.512C58.8427 5.672 58.6133 5.912 58.432 6.232C58.1547 6.70133 58.016 7.304 58.016 8.04V9.48C58.016 10.216 58.1547 10.8187 58.432 11.288C58.6133 11.608 58.8427 11.848 59.12 12.008C59.376 12.1573 59.6747 12.232 60.016 12.232ZM67.392 13.128C66.848 13.128 66.3893 13.0213 66.016 12.808C65.6853 12.616 65.4187 12.3493 65.216 12.008C65.0027 11.6347 64.896 11.192 64.896 10.68C64.896 10.2107 64.992 9.8 65.184 9.448C65.408 9.08533 65.7227 8.78667 66.128 8.552C66.6933 8.22133 67.4187 8.056 68.304 8.056H69.984V7.224C69.984 6.81867 69.8987 6.472 69.728 6.184C69.5787 5.928 69.3707 5.72 69.104 5.56C68.784 5.37867 68.4 5.288 67.952 5.288C67.4933 5.288 67.0987 5.384 66.768 5.576C66.512 5.72533 66.3093 5.928 66.16 6.184C66.0427 6.38667 65.9733 6.6 65.952 6.824L64.992 6.6C65.024 6.30133 65.12 6.008 65.28 5.72C65.5147 5.336 65.8187 5.032 66.192 4.808C66.672 4.53067 67.2587 4.392 67.952 4.392C68.624 4.392 69.2 4.53067 69.68 4.808C70.0747 5.032 70.384 5.336 70.608 5.72C70.8533 6.14667 70.976 6.648 70.976 7.224V13H69.984V11.72C69.7387 12.1467 69.4027 12.4827 68.976 12.728C68.6347 12.9307 68.2507 13.0533 67.824 13.096C67.6853 13.1173 67.5413 13.128 67.392 13.128ZM67.648 12.232C68.128 12.232 68.5493 12.1307 68.912 11.928C69.2213 11.736 69.472 11.48 69.664 11.16C69.8773 10.7973 69.984 10.3547 69.984 9.832V8.952H68.304C67.6533 8.952 67.12 9.06933 66.704 9.304C66.4267 9.464 66.2187 9.66667 66.08 9.912C65.952 10.1253 65.888 10.376 65.888 10.664C65.888 10.984 65.9573 11.2507 66.096 11.464C66.2133 11.688 66.3893 11.864 66.624 11.992C66.8907 12.152 67.232 12.232 67.648 12.232ZM73.984 13V4.52H74.976V6.2C75.0613 5.976 75.1573 5.76267 75.264 5.56C75.5093 5.144 75.8027 4.83467 76.144 4.632C76.432 4.472 76.7573 4.392 77.12 4.392C77.5147 4.392 77.8773 4.488 78.208 4.68C78.5493 4.872 78.816 5.13867 79.008 5.48C79.0933 5.62933 79.1627 5.78933 79.216 5.96L78.288 6.376C78.2453 6.22667 78.1867 6.08267 78.112 5.944C77.9733 5.72 77.808 5.54933 77.616 5.432C77.4453 5.336 77.2587 5.288 77.056 5.288C76.736 5.288 76.4533 5.35733 76.208 5.496C75.92 5.66667 75.6747 5.92267 75.472 6.264C75.1413 6.82933 74.976 7.576 74.976 8.504V13H73.984ZM84.016 13.128C83.4187 13.128 82.9013 13.0053 82.464 12.76C82.0267 12.504 81.6747 12.1413 81.408 11.672C81.0667 11.0747 80.896 10.344 80.896 9.48V8.04C80.896 7.176 81.0667 6.44533 81.408 5.848C81.6747 5.37867 82.0267 5.02133 82.464 4.776C82.9013 4.52 83.4187 4.392 84.016 4.392C84.6133 4.392 85.136 4.52 85.584 4.776C86.0107 5.02133 86.3627 5.37867 86.64 5.848C86.8427 6.2 86.9813 6.584 87.056 7L86.112 7.288C86.048 6.91467 85.9307 6.584 85.76 6.296C85.5787 5.96533 85.3333 5.70933 85.024 5.528C84.736 5.368 84.4 5.288 84.016 5.288C83.6427 5.288 83.3067 5.37333 83.008 5.544C82.72 5.71467 82.48 5.96533 82.288 6.296C82.0213 6.75467 81.888 7.336 81.888 8.04V9.48C81.888 10.184 82.0213 10.7653 82.288 11.224C82.48 11.5547 82.72 11.8053 83.008 11.976C83.3067 12.1467 83.6427 12.232 84.016 12.232C84.4 12.232 84.736 12.152 85.024 11.992C85.3333 11.8107 85.5787 11.5547 85.76 11.224C85.9307 10.936 86.048 10.6053 86.112 10.232L87.056 10.52C86.9813 10.936 86.8427 11.32 86.64 11.672C86.3627 12.1413 86.0107 12.4987 85.584 12.744C85.136 13 84.6133 13.128 84.016 13.128ZM91.968 13.128C91.7227 13.128 91.4933 13.112 91.28 13.08C90.8427 13.016 90.464 12.8933 90.144 12.712C89.7493 12.488 89.4347 12.1733 89.2 11.768C89.104 11.5973 89.0293 11.4213 88.976 11.24L89.92 10.952C89.9627 11.08 90.016 11.1973 90.08 11.304C90.2293 11.5707 90.4373 11.784 90.704 11.944C91.0453 12.136 91.4667 12.232 91.968 12.232C92.5227 12.232 92.976 12.1307 93.328 11.928C93.552 11.7893 93.7227 11.624 93.84 11.432C93.9467 11.2507 94 11.0427 94 10.808C94 10.5733 93.9413 10.3547 93.824 10.152C93.696 9.928 93.5093 9.74667 93.264 9.608C92.9973 9.448 92.5493 9.33067 91.92 9.256C91.152 9.14933 90.5813 8.98933 90.208 8.776C89.824 8.552 89.5253 8.264 89.312 7.912C89.1093 7.54933 89.008 7.14933 89.008 6.712C89.008 6.296 89.0987 5.93867 89.28 5.64C89.4613 5.32 89.7333 5.05333 90.096 4.84C90.608 4.54133 91.2533 4.392 92.032 4.392C92.768 4.392 93.376 4.53067 93.856 4.808C94.2507 5.032 94.5653 5.34667 94.8 5.752C94.896 5.92267 94.9707 6.09867 95.024 6.28L94.08 6.568C94.0053 6.30133 93.8613 6.06133 93.648 5.848C93.5413 5.74133 93.424 5.65067 93.296 5.576C92.9547 5.384 92.5333 5.288 92.032 5.288C91.4773 5.288 91.024 5.38933 90.672 5.592C90.448 5.73067 90.2773 5.896 90.16 6.088C90.0533 6.26933 90 6.47733 90 6.712C90 6.94667 90.0587 7.16533 90.176 7.368C90.304 7.592 90.4907 7.77333 90.736 7.912C91.0027 8.072 91.4507 8.18933 92.08 8.264C92.848 8.37067 93.4187 8.53067 93.792 8.744C94.176 8.968 94.4693 9.26133 94.672 9.624C94.8853 9.976 94.992 10.3707 94.992 10.808C94.992 11.224 94.9013 11.5813 94.72 11.88C94.5387 12.2 94.2667 12.4667 93.904 12.68C93.392 12.9787 92.7467 13.128 91.968 13.128ZM100 13.128C99.776 13.128 99.584 13.08 99.424 12.984C99.2853 12.9093 99.1733 12.7973 99.088 12.648C99.0453 12.5733 99.0133 12.488 98.992 12.392C98.9707 12.296 98.96 12.1893 98.96 12.072C98.9493 11.8587 98.992 11.672 99.088 11.512C99.1733 11.3627 99.2853 11.2507 99.424 11.176C99.584 11.08 99.776 11.032 100 11.032C100.224 11.032 100.416 11.08 100.576 11.176C100.715 11.2507 100.827 11.3627 100.912 11.512C100.997 11.6613 101.045 11.848 101.056 12.072C101.045 12.3067 100.997 12.4987 100.912 12.648C100.827 12.7973 100.715 12.9093 100.576 12.984C100.416 13.08 100.224 13.128 100 13.128ZM108 13.128C107.413 13.128 106.901 13.0053 106.464 12.76C106.027 12.504 105.675 12.1467 105.408 11.688C105.067 11.0907 104.896 10.3547 104.896 9.48V8.04C104.896 7.16533 105.067 6.42933 105.408 5.832C105.675 5.37333 106.027 5.02133 106.464 4.776C106.901 4.52 107.413 4.392 108 4.392C108.587 4.392 109.099 4.52 109.536 4.776C109.973 5.02133 110.325 5.37333 110.592 5.832C110.933 6.42933 111.104 7.16533 111.104 8.04V9.48C111.104 10.3547 110.933 11.0907 110.592 11.688C110.325 12.1467 109.973 12.504 109.536 12.76C109.099 13.0053 108.587 13.128 108 13.128ZM108 12.232C108.373 12.232 108.699 12.152 108.976 11.992C109.264 11.8213 109.509 11.5707 109.712 11.24C109.979 10.7707 110.112 10.184 110.112 9.48V8.04C110.112 7.336 109.979 6.74933 109.712 6.28C109.509 5.94933 109.264 5.69867 108.976 5.528C108.699 5.368 108.373 5.288 108 5.288C107.627 5.288 107.301 5.368 107.024 5.528C106.736 5.69867 106.491 5.94933 106.288 6.28C106.021 6.74933 105.888 7.336 105.888 8.04V9.48C105.888 10.184 106.021 10.7707 106.288 11.24C106.491 11.5707 106.736 11.8213 107.024 11.992C107.301 12.152 107.627 12.232 108 12.232ZM113.984 13V4.52H114.976V6.2C115.061 5.976 115.157 5.76267 115.264 5.56C115.509 5.144 115.803 4.83467 116.144 4.632C116.432 4.472 116.757 4.392 117.12 4.392C117.515 4.392 117.877 4.488 118.208 4.68C118.549 4.872 118.816 5.13867 119.008 5.48C119.093 5.62933 119.163 5.78933 119.216 5.96L118.288 6.376C118.245 6.22667 118.187 6.08267 118.112 5.944C117.973 5.72 117.808 5.54933 117.616 5.432C117.445 5.336 117.259 5.288 117.056 5.288C116.736 5.288 116.453 5.35733 116.208 5.496C115.92 5.66667 115.675 5.92267 115.472 6.264C115.141 6.82933 114.976 7.576 114.976 8.504V13H113.984ZM124 16.408C123.2 16.408 122.523 16.2533 121.968 15.944C121.563 15.7093 121.259 15.4053 121.056 15.032C120.853 14.68 120.747 14.264 120.736 13.784C120.747 13.3467 120.837 12.9733 121.008 12.664C121.189 12.344 121.451 12.0827 121.792 11.88C121.653 11.7627 121.536 11.624 121.44 11.464C121.301 11.24 121.237 10.9947 121.248 10.728C121.237 10.4613 121.307 10.2053 121.456 9.96C121.584 9.736 121.765 9.544 122 9.384C121.68 9.17067 121.429 8.904 121.248 8.584C121.013 8.17867 120.896 7.69867 120.896 7.144C120.896 6.57867 121.013 6.09867 121.248 5.704C121.461 5.32 121.765 5.016 122.16 4.792C122.619 4.52533 123.179 4.392 123.84 4.392C124.192 4.392 124.512 4.42933 124.8 4.504L124.88 4.52H127.36V5.416L126.224 5.368C126.309 5.47467 126.384 5.58667 126.448 5.704C126.683 6.09867 126.8 6.57867 126.8 7.144C126.8 7.69867 126.683 8.17867 126.448 8.584C126.224 8.95733 125.92 9.256 125.536 9.48C125.077 9.74667 124.512 9.88 123.84 9.88C123.456 9.88 123.104 9.83733 122.784 9.752C122.624 9.80533 122.485 9.89067 122.368 10.008C122.208 10.168 122.128 10.3547 122.128 10.568C122.128 10.7707 122.203 10.952 122.352 11.112C122.565 11.3253 122.955 11.4373 123.52 11.448C123.552 11.448 123.584 11.448 123.616 11.448H124.384C125.109 11.448 125.712 11.592 126.192 11.88C126.544 12.072 126.811 12.3333 126.992 12.664C127.184 12.984 127.28 13.368 127.28 13.816C127.28 14.264 127.173 14.6693 126.96 15.032C126.757 15.4053 126.453 15.704 126.048 15.928C125.504 16.248 124.821 16.408 124 16.408ZM124 15.512C124.597 15.512 125.088 15.4 125.472 15.176C125.739 15.016 125.947 14.8187 126.096 14.584C126.224 14.3493 126.288 14.0933 126.288 13.816C126.288 13.5387 126.229 13.304 126.112 13.112C126.005 12.92 125.84 12.76 125.616 12.632C125.285 12.44 124.875 12.344 124.384 12.344H123.52C123.093 12.344 122.725 12.4347 122.416 12.616C122.192 12.744 122.021 12.904 121.904 13.096C121.787 13.2987 121.733 13.528 121.744 13.784C121.733 14.0827 121.797 14.3493 121.936 14.584C122.075 14.8293 122.283 15.0267 122.56 15.176C122.933 15.4 123.413 15.512 124 15.512ZM123.84 8.984C124.277 8.984 124.651 8.89867 124.96 8.728C125.216 8.57867 125.419 8.376 125.568 8.12C125.717 7.85333 125.797 7.528 125.808 7.144C125.797 6.76 125.717 6.42933 125.568 6.152C125.419 5.90667 125.216 5.70933 124.96 5.56C124.704 5.41067 124.405 5.32533 124.064 5.304L123.84 5.288C123.413 5.288 123.045 5.37333 122.736 5.544C122.48 5.704 122.277 5.90667 122.128 6.152C121.968 6.42933 121.888 6.76 121.888 7.144C121.888 7.528 121.968 7.85333 122.128 8.12C122.277 8.376 122.48 8.57867 122.736 8.728C123.045 8.89867 123.413 8.984 123.84 8.984Z" fill="#47759F"/>
<path d="M0 14.2H128V15H0V14.2Z" fill="#47759F"/>
</svg>
