<svg width="220" height="48" viewBox="0 0 220 48" fill="none" xmlns="http://www.w3.org/2000/svg">
<path d="M58.232 34V16.96H59.456V27.304L69.392 16.96H70.808L63.728 24.424L71.168 34H69.776L62.936 25.168L59.456 28.744V34H58.232ZM78.8184 16.96H79.8744L87.0744 34H85.7784L83.4024 28.384H75.2664L72.8904 34H71.5704L78.8184 16.96ZM83.0664 27.376L79.3464 18.448L75.5544 27.376H83.0664ZM89.6617 34V16.96H90.8857V34H89.6617ZM105.269 19.792C104.165 18.56 102.605 17.944 100.589 17.944C98.925 17.944 97.709 18.264 96.941 18.904C96.189 19.528 95.813 20.376 95.813 21.448C95.813 21.992 95.909 22.448 96.101 22.816C96.293 23.168 96.589 23.472 96.989 23.728C97.405 23.984 97.925 24.2 98.549 24.376C99.173 24.552 99.925 24.736 100.805 24.928C101.717 25.12 102.541 25.336 103.277 25.576C104.029 25.8 104.661 26.088 105.173 26.44C105.701 26.792 106.101 27.224 106.373 27.736C106.661 28.248 106.805 28.88 106.805 29.632C106.805 30.384 106.653 31.04 106.349 31.6C106.061 32.16 105.645 32.632 105.101 33.016C104.573 33.384 103.933 33.664 103.181 33.856C102.445 34.048 101.621 34.144 100.709 34.144C98.053 34.144 95.805 33.296 93.965 31.6L94.613 30.616C95.333 31.368 96.213 31.968 97.253 32.416C98.293 32.848 99.461 33.064 100.757 33.064C102.245 33.064 103.405 32.792 104.237 32.248C105.085 31.704 105.509 30.88 105.509 29.776C105.509 29.216 105.397 28.744 105.173 28.36C104.949 27.96 104.613 27.616 104.165 27.328C103.733 27.04 103.181 26.792 102.509 26.584C101.837 26.376 101.053 26.176 100.157 25.984C99.245 25.792 98.437 25.592 97.733 25.384C97.045 25.16 96.461 24.888 95.981 24.568C95.517 24.232 95.165 23.832 94.925 23.368C94.685 22.904 94.565 22.32 94.565 21.616C94.565 20.848 94.709 20.168 94.997 19.576C95.301 18.984 95.717 18.488 96.245 18.088C96.773 17.672 97.405 17.36 98.141 17.152C98.877 16.944 99.693 16.84 100.589 16.84C101.693 16.84 102.677 17.008 103.541 17.344C104.405 17.664 105.189 18.16 105.893 18.832L105.269 19.792ZM121.675 18.064H115.435V34H114.211V18.064H107.971V16.96H121.675V18.064ZM145.242 34V19.264L138.522 30.76H137.754L131.034 19.264V34H129.81V16.96H131.034L138.138 29.152L145.242 16.96H146.466V34H145.242ZM150.927 34V16.96H152.151V34H150.927ZM156.623 34V16.96H163.703C164.423 16.96 165.087 17.112 165.695 17.416C166.303 17.72 166.823 18.128 167.255 18.64C167.703 19.136 168.047 19.704 168.287 20.344C168.543 20.968 168.671 21.6 168.671 22.24C168.671 22.864 168.575 23.472 168.383 24.064C168.191 24.64 167.919 25.16 167.567 25.624C167.215 26.088 166.791 26.472 166.295 26.776C165.799 27.08 165.255 27.28 164.663 27.376L168.911 34H167.495L163.367 27.568H157.847V34H156.623ZM157.847 26.44H163.823C164.367 26.44 164.863 26.32 165.311 26.08C165.759 25.84 166.143 25.528 166.463 25.144C166.783 24.744 167.023 24.296 167.183 23.8C167.359 23.288 167.447 22.768 167.447 22.24C167.447 21.696 167.343 21.176 167.135 20.68C166.943 20.168 166.671 19.72 166.319 19.336C165.983 18.952 165.583 18.648 165.119 18.424C164.671 18.184 164.183 18.064 163.655 18.064H157.847V26.44ZM172.209 34V16.96H179.289C180.009 16.96 180.673 17.112 181.281 17.416C181.889 17.72 182.409 18.128 182.841 18.64C183.289 19.136 183.633 19.704 183.873 20.344C184.129 20.968 184.257 21.6 184.257 22.24C184.257 22.864 184.161 23.472 183.969 24.064C183.777 24.64 183.505 25.16 183.153 25.624C182.801 26.088 182.377 26.472 181.881 26.776C181.385 27.08 180.841 27.28 180.249 27.376L184.497 34H183.081L178.953 27.568H173.433V34H172.209ZM173.433 26.44H179.409C179.953 26.44 180.449 26.32 180.897 26.08C181.345 25.84 181.729 25.528 182.049 25.144C182.369 24.744 182.609 24.296 182.769 23.8C182.945 23.288 183.033 22.768 183.033 22.24C183.033 21.696 182.929 21.176 182.721 20.68C182.529 20.168 182.257 19.72 181.905 19.336C181.569 18.952 181.169 18.648 180.705 18.424C180.257 18.184 179.769 18.064 179.241 18.064H173.433V26.44ZM194.587 34.12C193.403 34.12 192.323 33.872 191.347 33.376C190.371 32.88 189.531 32.232 188.827 31.432C188.123 30.632 187.579 29.712 187.195 28.672C186.811 27.632 186.619 26.568 186.619 25.48C186.619 24.344 186.819 23.256 187.219 22.216C187.635 21.176 188.195 20.256 188.899 19.456C189.619 18.656 190.467 18.024 191.443 17.56C192.419 17.08 193.475 16.84 194.611 16.84C195.795 16.84 196.875 17.096 197.851 17.608C198.843 18.104 199.683 18.76 200.371 19.576C201.075 20.392 201.619 21.32 202.003 22.36C202.387 23.384 202.579 24.424 202.579 25.48C202.579 26.632 202.371 27.728 201.955 28.768C201.555 29.808 200.995 30.728 200.275 31.528C199.571 32.312 198.731 32.944 197.755 33.424C196.779 33.888 195.723 34.12 194.587 34.12ZM187.843 25.48C187.843 26.456 188.003 27.4 188.323 28.312C188.659 29.208 189.123 30.008 189.715 30.712C190.323 31.4 191.043 31.952 191.875 32.368C192.707 32.784 193.619 32.992 194.611 32.992C195.635 32.992 196.555 32.776 197.371 32.344C198.203 31.912 198.907 31.344 199.483 30.64C200.075 29.92 200.531 29.112 200.851 28.216C201.171 27.32 201.331 26.408 201.331 25.48C201.331 24.504 201.163 23.568 200.827 22.672C200.491 21.76 200.019 20.96 199.411 20.272C198.819 19.568 198.115 19.008 197.299 18.592C196.483 18.176 195.587 17.968 194.611 17.968C193.587 17.968 192.659 18.184 191.827 18.616C190.995 19.048 190.283 19.624 189.691 20.344C189.099 21.048 188.643 21.848 188.323 22.744C188.003 23.64 187.843 24.552 187.843 25.48ZM205.865 34V16.96H212.945C213.665 16.96 214.329 17.112 214.937 17.416C215.545 17.72 216.065 18.128 216.497 18.64C216.945 19.136 217.289 19.704 217.529 20.344C217.785 20.968 217.913 21.6 217.913 22.24C217.913 22.864 217.817 23.472 217.625 24.064C217.433 24.64 217.161 25.16 216.809 25.624C216.457 26.088 216.033 26.472 215.537 26.776C215.041 27.08 214.497 27.28 213.905 27.376L218.153 34H216.737L212.609 27.568H207.089V34H205.865ZM207.089 26.44H213.065C213.609 26.44 214.105 26.32 214.553 26.08C215.001 25.84 215.385 25.528 215.705 25.144C216.025 24.744 216.265 24.296 216.425 23.8C216.601 23.288 216.689 22.768 216.689 22.24C216.689 21.696 216.585 21.176 216.377 20.68C216.185 20.168 215.913 19.72 215.561 19.336C215.225 18.952 214.825 18.648 214.361 18.424C213.913 18.184 213.425 18.064 212.897 18.064H207.089V26.44Z" fill="#202020"/>
<path d="M30.8394 11.4404L8.95335 0V32.5803L30.8394 44.0207V11.4404Z" fill="black" fill-opacity="0.5"/>
<path d="M21.886 15.4197L0 3.97928V36.5596L21.886 48V15.4197Z" fill="black" fill-opacity="0.5"/>
</svg>
