<svg width="18" height="35" viewBox="0 0 18 35" fill="none" xmlns="http://www.w3.org/2000/svg">
<path d="M6.84375 25.125C6.875 23.2812 7.125 21.7969 7.59375 20.6719C8.0625 19.5469 9.07031 18.2266 10.6172 16.7109C12.1641 15.1797 13.1562 14.1016 13.5938 13.4766C14.0469 12.8359 14.3906 12.1406 14.625 11.3906C14.875 10.625 15 9.75781 15 8.78906C15 6.83594 14.4766 5.30469 13.4297 4.19531C12.3984 3.07031 10.9531 2.50781 9.09375 2.50781C7.21875 2.50781 5.70312 3.04688 4.54688 4.125C3.40625 5.1875 2.82031 6.63281 2.78906 8.46094H0C0.03125 5.89844 0.898438 3.85156 2.60156 2.32031C4.30469 0.773438 6.46875 0 9.09375 0C11.7812 0 13.8984 0.789062 15.4453 2.36719C17.0078 3.92969 17.7891 6.05469 17.7891 8.74219C17.7891 10.4297 17.4062 12.0156 16.6406 13.5C15.875 14.9688 14.4219 16.6875 12.2812 18.6562C10.5156 20.1406 9.63281 22.2969 9.63281 25.125H6.84375ZM6.46875 32.9531C6.46875 32.4219 6.63281 31.9766 6.96094 31.6172C7.30469 31.2422 7.78125 31.0547 8.39062 31.0547C8.98438 31.0547 9.45312 31.2422 9.79688 31.6172C10.1562 31.9766 10.3359 32.4219 10.3359 32.9531C10.3359 33.4688 10.1562 33.9062 9.79688 34.2656C9.45312 34.6094 8.98438 34.7812 8.39062 34.7812C7.78125 34.7812 7.30469 34.6094 6.96094 34.2656C6.63281 33.9062 6.46875 33.4688 6.46875 32.9531Z" fill="#BBBBBB"/>
</svg>
