<svg width="205" height="59" viewBox="0 0 205 59" fill="none" xmlns="http://www.w3.org/2000/svg">
<path d="M107 4H99V36H107V4Z" fill="black"/>
<path d="M144 4V10.6661H154.737V36H163.263V10.6661H174V4H144Z" fill="black"/>
<path d="M132.044 16.6687H124.967C123.088 16.6687 121.562 15.891 121.562 13.6656C121.562 11.4403 123.088 10.6625 124.967 10.6625H140.177V4H123.96C117.908 4 113 7.5111 113 13.6656C113 19.8247 117.908 23.3313 123.96 23.3313H131.239C133.118 23.3313 134.639 24.1135 134.639 26.3344C134.639 28.5597 133.118 29.333 131.239 29.333H114.172V36H132.04C138.092 36 143 32.4979 143 26.3389C143.004 20.1888 138.097 16.6687 132.044 16.6687Z" fill="black"/>
<path d="M72.7313 4L60.7707 32.7951L49.3688 19.9978L63.6268 4H53.968L40.4565 19.1886V4H32V36H40.4565V20.8069L53.968 36H68.0338L77.7194 11.8663L84.75 29.6126H73.5716L76.2266 36H96L82.7075 4H72.7313Z" fill="black"/>
<path d="M13 49.5C42.4018 53.7816 72.4493 56 103 56C133.555 56 163.603 53.7816 193 49.5C163.603 45.2184 133.555 43 103 43C72.4493 43 42.4018 45.2184 13 49.5Z" fill="black"/>
</svg>
